<?xml version="1.0" encoding="UTF-8"?>
<!DOCTYPE svg PUBLIC "-//W3C//DTD SVG 1.1//EN" "http://www.w3.org/Graphics/SVG/1.1/DTD/svg11.dtd">
<!-- Creator: CorelDRAW X7 -->
<svg xmlns="http://www.w3.org/2000/svg" xml:space="preserve" width="100%" height="100%" version="1.1" style="shape-rendering:geometricPrecision; text-rendering:geometricPrecision; image-rendering:optimizeQuality; fill-rule:evenodd; clip-rule:evenodd"
viewBox="0 0 15010 3805"
 xmlns:xlink="http://www.w3.org/1999/xlink">
 <defs>
  <style type="text/css">
   <![CDATA[
    .fil8 {fill:#FECC09}
    .fil5 {fill:#E31E24}
    .fil4 {fill:#AE4A84}
    .fil3 {fill:#57A7B3}
    .fil6 {fill:#7E71B1}
    .fil2 {fill:#00A0E3}
    .fil1 {fill:#009846}
    .fil7 {fill:#008DD2}
    .fil0 {fill:#2B2A29;fill-rule:nonzero}
   ]]>
  </style>
 </defs>
 <g id="Layer_x0020_1">
  <metadata id="CorelCorpID_0Corel-Layer"/>
  <path class="fil0" d="M5771 587c-16,-27 -76,-41 -178,-41 -135,0 -237,46 -306,137 -70,91 -105,223 -105,395 0,358 134,536 402,536 4,0 23,0 57,0 34,0 67,-4 97,-14 30,-9 49,-19 54,-29 6,-10 9,-26 9,-48l0 -174 221 16 0 375c-112,59 -256,89 -429,89 -222,0 -391,-62 -507,-187 -117,-124 -175,-309 -175,-555 0,-136 19,-255 59,-356 39,-102 91,-181 158,-237 130,-109 285,-163 465,-163 144,0 280,30 408,89l0 369 -222 15 0 -169c0,-22 -3,-37 -8,-48z"/>
  <path id="1" class="fil0" d="M6654 1606c174,0 261,-70 261,-209 0,-72 -39,-126 -115,-160 -41,-21 -93,-40 -158,-57 -64,-17 -118,-35 -160,-53 -43,-18 -86,-43 -130,-75 -85,-64 -128,-162 -128,-294 0,-133 46,-237 138,-313 92,-76 212,-114 361,-114 148,0 286,30 413,89l0 326 -221 15 0 -126c0,-22 -3,-37 -9,-48 -16,-27 -67,-41 -153,-41 -86,0 -150,15 -191,46 -41,30 -62,77 -62,141 0,46 17,87 52,121 23,24 58,43 103,58 46,15 94,31 146,47 51,16 97,33 137,52 39,19 81,45 124,78 89,65 133,166 133,302 0,136 -49,243 -147,321 -97,78 -226,117 -386,117 -160,0 -304,-30 -431,-89l0 -343 221 -15 0 132c0,22 3,38 9,48 6,10 24,20 53,29 30,10 77,15 140,15z"/>
  <path id="2" class="fil0" d="M7787 1606c174,0 261,-70 261,-209 0,-72 -38,-126 -115,-160 -41,-21 -93,-40 -158,-57 -64,-17 -117,-35 -160,-53 -43,-18 -86,-43 -129,-75 -86,-64 -128,-162 -128,-294 0,-133 46,-237 137,-313 92,-76 212,-114 361,-114 148,0 286,30 413,89l0 326 -221 15 0 -126c0,-22 -3,-37 -9,-48 -16,-27 -67,-41 -153,-41 -86,0 -150,15 -191,46 -41,30 -62,77 -62,141 0,46 18,87 52,121 24,24 58,43 104,58 45,15 94,31 145,47 51,16 97,33 137,52 40,19 81,45 125,78 88,65 132,166 132,302 0,136 -49,243 -147,321 -97,78 -226,117 -386,117 -160,0 -304,-30 -431,-89l0 -343 222 -15 0 132c0,22 2,38 8,48 6,10 24,20 53,29 30,10 77,15 140,15z"/>
  <path id="3" class="fil0" d="M8905 1801l0 -176 72 -6c42,-5 63,-25 63,-61l0 -1010 -124 -6 0 -185 1049 0 0 361 -222 15 0 -87c0,-25 -3,-42 -10,-52 -8,-10 -25,-15 -53,-15l-375 0 0 384 534 0 0 221 -534 0 0 426 193 6 0 185 -593 0z"/>
  <path id="4" class="fil0" d="M10475 709l0 912 124 6 0 174 -517 0 0 -165 72 -7c42,-4 63,-27 63,-69l0 -604c0,-24 -4,-41 -12,-49 -8,-9 -22,-14 -43,-14l-76 -4 0 -180 389 0zm-273 -188c-31,-29 -46,-67 -46,-114 0,-46 15,-85 46,-116 30,-31 70,-47 119,-47 49,0 89,16 120,47 32,31 47,70 47,116 0,47 -15,85 -47,114 -31,30 -71,45 -120,45 -49,0 -89,-15 -119,-45z"/>
  <path id="5" class="fil0" d="M11113 253l0 1368 124 6 0 174 -517 0 0 -165 72 -7c42,-4 63,-27 63,-69l0 -1070c0,-32 -18,-50 -54,-52l-76 -5 0 -180 388 0z"/>
  <path id="6" class="fil0" d="M11569 479l141 0 0 230 289 0 -22 182 -267 0 0 571c0,64 12,108 35,134 23,25 59,38 108,38 48,0 97,-15 146,-46l65 167c-72,51 -164,76 -276,76 -65,0 -120,-8 -165,-25 -44,-16 -78,-35 -99,-55 -22,-20 -39,-50 -50,-89 -12,-39 -18,-70 -20,-92 -1,-23 -2,-56 -2,-99l0 -580 -154 0 22 -158c68,-6 119,-30 154,-73 34,-43 66,-103 95,-181z"/>
  <path id="7" class="fil0" d="M12692 676c108,0 194,27 258,80 64,52 95,127 95,222 0,64 -13,120 -41,168 -27,49 -61,87 -102,114 -40,28 -90,50 -147,68 -97,29 -207,43 -328,43 4,77 28,139 71,186 44,47 110,70 200,70 90,0 180,-32 269,-95l83 176c-29,26 -78,52 -147,80 -69,27 -147,41 -235,41 -177,0 -306,-49 -389,-146 -82,-98 -124,-232 -124,-403 0,-171 47,-314 141,-430 95,-116 226,-174 396,-174zm-99 496c53,-9 101,-30 146,-62 45,-33 68,-72 68,-117 0,-88 -44,-132 -131,-132 -81,0 -143,32 -186,97 -44,64 -68,141 -72,231 64,-2 122,-7 175,-17z"/>
  <path id="8" class="fil0" d="M13332 1558l0 -602c0,-23 -4,-39 -12,-48 -8,-10 -22,-15 -42,-17l-91 -6 0 -176 366 0 0 163c26,-57 67,-103 122,-140 55,-37 118,-56 190,-56 72,0 140,16 205,48l0 324 -202 15 0 -100c0,-29 -7,-47 -21,-54 -16,-8 -36,-11 -59,-11 -58,0 -105,20 -142,62 -37,41 -56,93 -56,157l0 504 189 8 0 172 -582 0 0 -165 72 -7c22,-2 38,-9 48,-18 10,-9 15,-27 15,-53z"/>
  <path id="9" class="fil0" d="M14737 874c-35,-13 -77,-20 -126,-20 -50,0 -89,12 -119,34 -29,23 -44,50 -44,83 0,32 5,57 16,76 11,18 28,33 51,46 36,19 80,35 130,49 51,14 89,25 113,33 25,8 56,21 93,40 36,19 64,39 83,61 51,53 76,122 76,206 0,108 -39,193 -118,255 -79,61 -179,92 -301,92 -176,0 -310,-22 -399,-67l0 -302 195 -15 0 104c0,64 61,96 182,96 122,0 183,-45 183,-133 0,-32 -11,-58 -32,-78 -21,-20 -41,-34 -62,-41 -20,-7 -44,-15 -72,-22 -29,-7 -56,-14 -83,-22 -27,-7 -55,-17 -87,-29 -31,-12 -65,-30 -103,-53 -74,-48 -110,-128 -110,-240 0,-112 39,-199 119,-259 80,-61 180,-92 301,-92 120,0 240,29 359,87l0 261 -195 15 0 -91c0,-36 -17,-61 -50,-74z"/>
  <path id="10" class="fil0" d="M6049 3064l0 393c-135,93 -302,139 -502,139 -200,0 -356,-63 -468,-188 -112,-125 -168,-311 -168,-557 0,-108 14,-206 42,-293 29,-87 65,-158 111,-215 46,-56 99,-103 160,-141 115,-68 247,-102 394,-102 146,0 284,30 411,89l0 369 -221 15 0 -169c0,-22 -3,-38 -9,-48 -16,-27 -82,-41 -198,-41 -279,0 -419,173 -419,519 0,365 126,547 378,547 100,0 177,-17 230,-52l0 -324 -2 0 -167 -6 0 -185 540 0 0 174 -50 4c-23,3 -39,9 -48,19 -10,9 -14,27 -14,53z"/>
  <path id="11" class="fil0" d="M7394 3398l0 172 -351 0 0 -141c-80,113 -197,169 -352,169 -224,0 -336,-125 -336,-376l0 -501c0,-39 -18,-59 -55,-61l-69 -4 0 -178 382 0 0 688c0,77 11,135 33,174 21,39 66,58 134,58 68,0 123,-21 164,-63 41,-42 62,-92 62,-152l0 -458c0,-23 -4,-39 -12,-49 -8,-9 -22,-14 -42,-16l-70 -4 0 -178 382 0 0 851c0,23 4,39 11,47 7,7 22,13 44,16l75 6z"/>
  <path id="12" class="fil0" d="M7662 3327l0 -602c0,-23 -4,-39 -12,-49 -8,-9 -22,-14 -43,-16l-91 -6 0 -176 367 0 0 163c26,-57 67,-103 122,-140 55,-37 118,-56 189,-56 72,0 141,16 206,48l0 324 -202 15 0 -100c0,-29 -7,-47 -22,-54 -16,-8 -35,-11 -59,-11 -57,0 -105,20 -142,62 -37,41 -55,93 -55,157l0 504 189 8 0 172 -582 0 0 -165 72 -7c21,-3 37,-9 47,-18 10,-10 16,-27 16,-53z"/>
  <path id="13" class="fil0" d="M9659 3398l0 172 -352 0 0 -141c-80,113 -197,169 -352,169 -224,0 -336,-125 -336,-376l0 -501c0,-39 -18,-59 -54,-61l-70 -4 0 -178 382 0 0 688c0,77 11,135 33,174 22,39 66,58 134,58 68,0 123,-21 164,-63 42,-42 62,-92 62,-152l0 -458c0,-23 -4,-39 -12,-49 -8,-9 -22,-14 -42,-16l-70 -4 0 -178 383 0 0 851c0,23 3,39 10,47 8,7 22,13 44,16l76 6z"/>
  <path class="fil1" d="M616 661l1343 74 1383 -74c-296,-299 -496,-661 -1531,-661 -1036,0 -1113,509 -1195,661z"/>
  <path class="fil2" d="M255 1568c-169,-148 1187,-691 1414,-777 -1313,-273 -2104,317 -1414,777z"/>
  <path class="fil3" d="M3634 1568c169,-148 -1187,-691 -1414,-777 1313,-273 2104,317 1414,777z"/>
  <path class="fil4" d="M458 2523c-124,-856 1020,-912 1521,-1019 567,-94 402,-802 -87,-696 -490,106 -1087,431 -1620,831 -270,435 -46,661 186,884z"/>
  <path class="fil5" d="M3476 2535c124,-857 -844,-880 -1346,-987 -5,-1 -10,-2 -16,-3 14,-3 28,-6 41,-9 427,-70 439,-491 208,-647 460,133 818,400 1299,761 269,436 45,662 -186,885z"/>
  <path class="fil6" d="M1539 2025c124,0 224,51 224,115 0,64 -100,116 -224,116 -123,0 -435,-153 -435,-217 0,-64 312,-14 435,-14z"/>
  <path class="fil7" d="M2304 2025c-123,0 -224,51 -224,115 0,64 101,116 224,116 124,0 435,-153 435,-217 0,-64 -311,-14 -435,-14z"/>
  <path class="fil8" d="M962 3056c-186,-52 -209,-428 194,-319 -187,-67 -391,-278 -749,126 -359,403 -178,890 347,939 523,49 664,-493 1230,-496 566,3 707,545 1230,496 525,-49 705,-536 347,-939 -358,-404 -562,-193 -750,-126 404,-109 381,267 195,319 -187,51 -674,-709 -997,-254 -9,13 -18,26 -25,39 -8,-13 -16,-26 -26,-39 -322,-455 -810,305 -996,254z"/>
 </g>
</svg>
