<svg width="12338" height="2451" xmlns="http://www.w3.org/2000/svg">
 <defs>
  <style type="text/css">
   <![CDATA[
    .fil8 {fill:#FECC09}
    .fil5 {fill:#E31E24}
    .fil4 {fill:#AE4A84}
    .fil3 {fill:#57A7B3}
    .fil6 {fill:#7E71B1}
    .fil2 {fill:#00A0E3}
    .fil1 {fill:#009846}
    .fil7 {fill:#008DD2}
    .fil0 {fill:#2B2A29;fill-rule:nonzero}
   ]]>
  </style>
 </defs>
 <g>
  <title>background</title>
  <rect fill="none" id="canvas_background" height="2453" width="12340" y="-1" x="-1"/>
 </g>
 <g>
  <title>Layer 1</title>
  <g id="Layer_x0020_1">
   <metadata transform="translate(1,1) translate(20.00008201599121,0) " id="CorelCorpID_0Corel-Layer"/>
   <g stroke="null" id="svg_10">
    <path stroke="null" id="svg_2" d="m615.310526,492.882639l778.593365,43.871827l801.78304,-43.871827c-171.603601,-177.265895 -287.55198,-391.882128 -887.584841,-391.882128c-600.612603,0 -645.252729,301.767024 -692.791564,391.882128z" class="fil1"/>
    <path stroke="null" id="svg_3" d="m406.023702,1030.608948c-97.97638,-87.743653 688.153629,-409.668004 819.755039,-460.654181c-761.201108,-161.851469 -1219.776946,187.93742 -819.755039,460.654181z" class="fil2"/>
    <path stroke="null" id="svg_4" d="m2364.971564,1030.608948c97.97638,-87.743653 -688.153629,-409.668004 -819.755039,-460.654181c761.201108,-161.851469 1219.776946,187.93742 819.755039,460.654181z" class="fil3"/>
    <path stroke="null" id="svg_5" d="m523.711306,1596.792658c-71.887995,-507.49032 591.336733,-540.690621 881.787422,-604.126911c328.713654,-55.729077 233.056242,-475.475744 -50.437545,-412.632316c-284.073528,62.843427 -630.17944,255.523748 -939.181869,492.668757c-156.530312,257.895198 -26.668127,391.882128 107.831992,524.090471z" class="fil4"/>
    <path stroke="null" id="svg_6" d="m2273.372344,1603.907008c71.887995,-508.083183 -489.302159,-521.719021 -780.33259,-585.155311c-2.898709,-0.592863 -5.797419,-1.185725 -9.27587,-1.778588c8.116387,-1.778588 16.232773,-3.557175 23.769418,-5.335763c247.549789,-41.500377 254.506692,-291.095499 120.586314,-383.582053c266.681272,78.850716 474.22887,237.145009 753.084721,451.16838c155.95057,258.48806 26.088385,392.474991 -107.831992,524.683333z" class="fil5"/>
    <path stroke="null" id="svg_7" d="m1150.412294,1301.547121c71.887995,0 129.862184,30.235989 129.862184,68.17919c0,37.943202 -57.974189,68.772053 -129.862184,68.772053c-71.308253,0 -252.187724,-90.707966 -252.187724,-128.651168c0,-37.943202 180.879471,-8.300075 252.187724,-8.300075z" class="fil6"/>
    <path stroke="null" id="svg_8" d="m1593.914844,1301.547121c-71.308253,0 -129.862184,30.235989 -129.862184,68.17919c0,37.943202 58.553931,68.772053 129.862184,68.772053c71.887995,0 252.187724,-90.707966 252.187724,-128.651168c0,-37.943202 -180.299729,-8.300075 -252.187724,-8.300075z" class="fil7"/>
    <path stroke="null" id="svg_9" d="m815.901221,1912.788383c-107.831992,-30.828851 -121.166056,-253.74516 112.469928,-189.123145c-108.411734,-39.721789 -226.679081,-164.815782 -434.226679,74.700678c-208.12734,238.923597 -103.194057,527.647646 201.170437,556.69791c303.205011,29.050264 384.948618,-292.281224 713.08253,-294.059812c328.133912,1.778588 409.87752,323.110075 713.08253,294.059812c304.364495,-29.050264 408.718036,-317.774313 201.170437,-556.69791c-207.547598,-239.516459 -325.814945,-114.422467 -434.806421,-74.700678c234.215725,-64.622015 220.881662,158.294294 113.049669,189.123145c-108.411734,30.235989 -390.746037,-420.339529 -578.002669,-150.587081c-5.217677,7.707213 -10.435354,15.414426 -14.493547,23.121638c-4.637935,-7.707213 -9.27587,-15.414426 -15.073289,-23.121638c-186.67689,-269.752448 -469.590935,180.82307 -577.422927,150.587081z" class="fil8"/>
   </g>
   <g id="svg_14">
    <path stroke="null" d="m2941.56117,1462.986857l0,-146.721738l60.022529,-5.001877c35.013142,-4.168231 52.519713,-20.841156 52.519713,-50.852421l0,-841.9827l-103.372133,-5.001877l0,-154.224554l874.494904,0l0,300.946292l-185.069465,12.504694l0,-72.527223c0,-20.841156 -2.500939,-35.013142 -8.336462,-43.349604c-6.66917,-8.336462 -20.841156,-12.504694 -44.183251,-12.504694l-312.617339,0l0,320.120155l445.167091,0l0,184.235819l-445.167091,0l0,355.133297l160.893724,5.001877l0,154.224554l-494.352219,0z" class="fil0" id="3"/>
    <path stroke="null" d="m4250.385763,552.645165l0,760.285369l103.372133,5.001877l0,145.054445l-430.995105,0l0,-137.551629l60.022529,-5.835524c35.013142,-3.334585 52.519713,-22.508448 52.519713,-57.52159l0,-503.522328c0,-20.00751 -3.334585,-34.179496 -10.003755,-40.848666c-6.66917,-7.502816 -18.340217,-11.671047 -35.846788,-11.671047l-63.357114,-3.334585l0,-150.056323l324.288387,0zm-227.585423,-156.725493c-25.843033,-24.175741 -38.347727,-55.854298 -38.347727,-95.035671c0,-38.347727 12.504694,-70.85993 38.347727,-96.702964c25.009387,-25.843033 58.355237,-39.181373 99.203902,-39.181373c40.848666,0 74.194515,13.33834 100.037549,39.181373c26.67668,25.843033 39.181373,58.355237 39.181373,96.702964c0,39.181373 -12.504694,70.85993 -39.181373,95.035671c-25.843033,25.009387 -59.188883,37.514081 -100.037549,37.514081c-40.848666,0 -74.194515,-12.504694 -99.203902,-37.514081z" class="fil0" id="4"/>
    <path stroke="null" d="m4782.252063,172.50248l0,1140.428053l103.372133,5.001877l0,145.054445l-430.995105,0l0,-137.551629l60.022529,-5.835524c35.013142,-3.334585 52.519713,-22.508448 52.519713,-57.52159l0,-892.001474c0,-26.67668 -15.005632,-41.682312 -45.016897,-43.349604l-63.357114,-4.168231l0,-150.056323l323.45474,0z" class="fil0" id="5"/>
    <path stroke="null" d="m5162.394747,360.90653l117.54412,0l0,191.738635l240.923763,0l-18.340217,151.723615l-222.583546,0l0,476.012002c0,53.353359 10.003755,90.033794 29.177618,111.708596c19.173863,20.841156 49.185128,31.678557 90.033794,31.678557c40.015019,0 80.863685,-12.504694 121.712351,-38.347727l54.187005,139.218922c-60.022529,42.515958 -136.717983,63.357114 -230.086362,63.357114c-54.187005,0 -100.037549,-6.66917 -137.551629,-20.841156c-36.680434,-13.33834 -65.024407,-29.177618 -82.530978,-45.850543c-18.340217,-16.672925 -32.512203,-41.682312 -41.682312,-74.194515c-10.003755,-32.512203 -15.005632,-58.355237 -16.672925,-76.695454c-0.833646,-19.173863 -1.667292,-46.684189 -1.667292,-82.530978l0,-483.514818l-128.381521,0l18.340217,-131.716106c56.687944,-5.001877 99.203902,-25.009387 128.381521,-60.856175c28.343972,-35.846788 55.020652,-85.865562 79.196393,-150.889969z" class="fil0" id="6"/>
    <path stroke="null" d="m6098.579472,525.134839c90.033794,0 161.72737,22.508448 215.080729,66.691699c53.353359,43.349604 79.196393,105.873072 79.196393,185.069465c0,53.353359 -10.837401,100.037549 -34.179496,140.052568c-22.508448,40.848666 -50.852421,72.527223 -85.031916,95.035671c-33.34585,23.342095 -75.028161,41.682312 -122.545997,56.687944c-80.863685,24.175741 -172.564771,35.846788 -273.435966,35.846788c3.334585,64.19076 23.342095,115.876827 59.188883,155.0582c36.680434,39.181373 91.701086,58.355237 166.729248,58.355237c75.028161,0 150.056323,-26.67668 224.250838,-79.196393l69.192638,146.721738c-24.175741,21.674802 -65.024407,43.349604 -122.545997,66.691699c-57.52159,22.508448 -122.545997,34.179496 -195.906866,34.179496c-147.555384,0 -255.095749,-40.848666 -324.288387,-121.712351c-68.358992,-81.697331 -103.372133,-193.405927 -103.372133,-335.959434c0,-142.553507 39.181373,-261.764919 117.54412,-358.467882c79.196393,-96.702964 188.40405,-145.054445 330.12391,-145.054445zm-82.530978,413.488534c44.183251,-7.502816 84.19827,-25.009387 121.712351,-51.686067c37.514081,-27.510326 56.687944,-60.022529 56.687944,-97.53661c0,-73.360869 -36.680434,-110.041303 -109.207657,-110.041303c-67.525345,0 -119.211412,26.67668 -155.0582,80.863685c-36.680434,53.353359 -56.687944,117.54412 -60.022529,192.572281c53.353359,-1.667292 101.704841,-5.835524 145.888092,-14.171986z" class="fil0" id="7"/>
    <path stroke="null" d="m6632.113065,1260.410821l0,-501.855035c0,-19.173863 -3.334585,-32.512203 -10.003755,-40.015019c-6.66917,-8.336462 -18.340217,-12.504694 -35.013142,-14.171986l-75.861808,-5.001877l0,-146.721738l305.114523,0l0,135.884337c21.674802,-47.517836 55.854298,-85.865562 101.704841,-116.710473c45.850543,-30.844911 98.370256,-46.684189 158.392785,-46.684189c60.022529,0 116.710473,13.33834 170.897479,40.015019l0,270.101381l-168.39654,12.504694l0,-83.364624c0,-24.175741 -5.835524,-39.181373 -17.506571,-45.016897c-13.33834,-6.66917 -30.011265,-9.170109 -49.185128,-9.170109c-48.351482,0 -87.532855,16.672925 -118.377766,51.686067c-30.844911,34.179496 -46.684189,77.5291 -46.684189,130.882459l0,420.157704l157.559139,6.66917l0,143.387153l-485.18211,0l0,-137.551629l60.022529,-5.835524c18.340217,-1.667292 31.678557,-7.502816 40.015019,-15.005632c8.336462,-7.502816 12.504694,-22.508448 12.504694,-44.183251z" class="fil0" id="8"/>
    <path stroke="null" d="m7803.386029,690.196794c-29.177618,-10.837401 -64.19076,-16.672925 -105.039426,-16.672925c-41.682312,0 -74.194515,10.003755 -99.203902,28.343972c-24.175741,19.173863 -36.680434,41.682312 -36.680434,69.192638c0,26.67668 4.168231,47.517836 13.33834,63.357114c9.170109,15.005632 23.342095,27.510326 42.515958,38.347727c30.011265,15.839279 66.691699,29.177618 108.374011,40.848666c42.515958,11.671047 74.194515,20.841156 94.202025,27.510326c20.841156,6.66917 46.684189,17.506571 77.5291,33.34585c30.011265,15.839279 53.353359,32.512203 69.192638,50.852421c42.515958,44.183251 63.357114,101.704841 63.357114,171.731125c0,90.033794 -32.512203,160.893724 -98.370256,212.579791c-65.858053,50.852421 -149.222677,76.695454 -250.927518,76.695454c-146.721738,0 -258.430334,-18.340217 -332.624849,-55.854298l0,-251.761164l162.561016,-12.504694l0,86.699209c0,53.353359 50.852421,80.030039 151.723615,80.030039c101.704841,0 152.557262,-37.514081 152.557262,-110.87495c0,-26.67668 -9.170109,-48.351482 -26.67668,-65.024407c-17.506571,-16.672925 -34.179496,-28.343972 -51.686067,-34.179496c-16.672925,-5.835524 -36.680434,-12.504694 -60.022529,-18.340217c-24.175741,-5.835524 -46.684189,-11.671047 -69.192638,-18.340217c-22.508448,-5.835524 -45.850543,-14.171986 -72.527223,-24.175741c-25.843033,-10.003755 -54.187005,-25.009387 -85.865562,-44.183251c-61.689822,-40.015019 -91.701086,-106.706718 -91.701086,-200.075097c0,-93.368379 32.512203,-165.895601 99.203902,-215.914376c66.691699,-50.852421 150.056323,-76.695454 250.927518,-76.695454c100.037549,0 200.075097,24.175741 299.278999,72.527223l0,217.581668l-162.561016,12.504694l0,-75.861808c0,-30.011265 -14.171986,-50.852421 -41.682312,-61.689822z" class="fil0" id="9"/>
    <g stroke="null" id="svg_12">
     <path stroke="null" d="m9328.825426,1049.14679l0,327.62297c-112.54225,77.5291 -251.76117,115.87683 -418.49042,115.87683c-166.72924,0 -296.77806,-52.51972 -390.14643,-156.72549c-93.36838,-104.20578 -140.05257,-259.26398 -140.05257,-464.34096c0,-90.03379 11.67104,-171.73112 35.01314,-244.25835c24.17574,-72.52722 54.187,-131.7161 92.53473,-179.23394c38.34773,-46.68419 82.53098,-85.86556 133.3834,-117.54412c95.86932,-56.68794 205.91062,-85.03191 328.45662,-85.03191c121.71235,0 236.75553,25.00938 342.6286,74.19451l0,307.61546l-184.23582,12.5047l0,-140.88622c0,-18.34022 -2.50094,-31.67855 -7.50281,-40.01502c-13.33834,-22.50845 -68.359,-34.17949 -165.06196,-34.17949c-232.5873,0 -349.29777,144.2208 -349.29777,432.66239c0,304.28088 105.03942,456.0045 315.11828,456.0045c83.36462,0 147.55538,-14.17199 191.73863,-43.34961l0,-270.10138l-1.66729,0l-139.21892,-5.00188l0,-154.22455l450.16896,0l0,145.05445l-41.68231,3.33458c-19.17386,2.50094 -32.5122,7.50282 -40.01502,15.83928c-8.33646,7.50281 -11.67104,22.50845 -11.67104,44.18325z" class="fil0" id="10"/>
     <path stroke="null" d="m10450.079612,1327.584633l0,143.387153l-292.609829,0l0,-117.54412c-66.691699,94.202025 -164.228309,140.886214 -293.443476,140.886214c-186.736757,0 -280.105136,-104.20578 -280.105136,-313.450985l0,-417.656765c0,-32.512203 -15.005632,-49.185128 -45.850543,-50.852421l-57.52159,-3.334585l0,-148.38903l318.452863,0l0,573.548612c0,64.19076 9.170109,112.542242 27.510326,145.054445c17.506571,32.512203 55.020652,48.351482 111.708596,48.351482c56.687944,0 102.538487,-17.506571 136.717983,-52.519713c34.179496,-35.013142 51.686067,-76.695454 51.686067,-126.714228l0,-381.809977c0,-19.173863 -3.334585,-32.512203 -10.003755,-40.848666c-6.66917,-7.502816 -18.340217,-11.671047 -35.013142,-13.33834l-58.355237,-3.334585l0,-148.38903l318.452863,0l0,709.432948c0,19.173863 3.334585,32.512203 9.170109,39.181373c5.835524,5.835524 18.340217,10.837401 36.680434,13.33834l62.523468,5.001877z" class="fil0" id="11"/>
     <path stroke="null" d="m10673.496804,1268.39575l0,-501.855035c0,-19.173863 -3.334585,-32.512203 -10.003755,-40.848666c-6.66917,-7.502816 -18.340217,-11.671047 -35.846788,-13.33834l-75.861808,-5.001877l0,-146.721738l305.948169,0l0,135.884337c21.674802,-47.517836 55.854298,-85.865562 101.704841,-116.710473c45.850543,-30.844911 98.370256,-46.684189 157.559139,-46.684189c60.022529,0 117.54412,13.33834 171.731125,40.015019l0,270.101381l-168.39654,12.504694l0,-83.364624c0,-24.175741 -5.835524,-39.181373 -18.340217,-45.016897c-13.33834,-6.66917 -29.177618,-9.170109 -49.185128,-9.170109c-47.517836,0 -87.532855,16.672925 -118.377766,51.686067c-30.844911,34.179496 -45.850543,77.5291 -45.850543,130.882459l0,420.157704l157.559139,6.66917l0,143.387153l-485.18211,0l0,-137.551629l60.022529,-5.835524c17.506571,-2.500939 30.844911,-7.502816 39.181373,-15.005632c8.336462,-8.336462 13.33834,-22.508448 13.33834,-44.183251z" class="fil0" id="12"/>
     <path stroke="null" d="m12338.288341,1327.584633l0,143.387153l-293.443476,0l0,-117.54412c-66.691699,94.202025 -164.228309,140.886214 -293.443476,140.886214c-186.736757,0 -280.105136,-104.20578 -280.105136,-313.450985l0,-417.656765c0,-32.512203 -15.005632,-49.185128 -45.016897,-50.852421l-58.355237,-3.334585l0,-148.38903l318.452863,0l0,573.548612c0,64.19076 9.170109,112.542242 27.510326,145.054445c18.340217,32.512203 55.020652,48.351482 111.708596,48.351482c56.687944,0 102.538487,-17.506571 136.717983,-52.519713c35.013142,-35.013142 51.686067,-76.695454 51.686067,-126.714228l0,-381.809977c0,-19.173863 -3.334585,-32.512203 -10.003755,-40.848666c-6.66917,-7.502816 -18.340217,-11.671047 -35.013142,-13.33834l-58.355237,-3.334585l0,-148.38903l319.286509,0l0,709.432948c0,19.173863 2.500939,32.512203 8.336462,39.181373c6.66917,5.835524 18.340217,10.837401 36.680434,13.33834l63.357114,5.001877z" class="fil0" id="13"/>
    </g>
   </g>
   <text font-style="normal" stroke="null" transform="matrix(2.7296743639813768,0,0,2.774126636082551,-8309.57002190596,-3326.3109048492493) " xml:space="preserve" text-anchor="start" font-family="Arvo, sans-serif" font-size="250" id="svg_17" y="2031.804812" x="4111.643742" fill-opacity="null" stroke-opacity="null" stroke-width="0" fill="#000000">CSS Filters for web developers</text>
  </g>
 </g>
</svg>